<?xml version="1.0" encoding="UTF-8"?>
<svg width="78px" height="78px" viewBox="0 0 78 78" version="1.1" xmlns="http://www.w3.org/2000/svg" xmlns:xlink="http://www.w3.org/1999/xlink">
    <!-- Generator: Sketch 51.2 (57519) - http://www.bohemiancoding.com/sketch -->
    <title>logo</title>
    <desc>Created with Sketch.</desc>
    <defs></defs>
    <g id="Page-1" stroke="none" stroke-width="1" fill="none" fill-rule="evenodd">
        <g id="2" transform="translate(-203.000000, -204.000000)" fill="#FE5F55" fill-rule="nonzero">
            <g id="logo" transform="translate(203.000000, 204.000000)">
                <rect id="Rectangle-path" x="0" y="23" width="37" height="14"></rect>
                <rect id="Rectangle-path" x="23" y="41" width="32" height="13"></rect>
                <rect id="Rectangle-path" x="23" y="0" width="24" height="19"></rect>
                <rect id="Rectangle-path" x="0" y="41" width="19" height="13"></rect>
                <rect id="Rectangle-path" x="41" y="23" width="37" height="14"></rect>
                <path d="M41,59 L41,78 L63.4549977,78 C71.4750674,78 78,71.3001634 78,63.0651119 L78,59 L41,59 Z" id="Shape"></path>
                <path d="M0,59 L0,63.0651119 C0,71.3003211 6.52617818,78 14.5477789,78 L37,78 L37,59 L0,59 Z" id="Shape"></path>
                <path d="M63.652692,0 L52,0 L52,19 L78,19 L78,14.6489128 C78,6.57170177 71.5637537,0 63.652692,0 Z" id="Shape"></path>
                <rect id="Rectangle-path" x="60" y="41" width="18" height="13"></rect>
                <path d="M14.7044355,0 C6.59645483,0 0,6.57154715 0,14.6489128 L0,19 L19,19 L19,0 L14.7044355,0 Z" id="Shape"></path>
            </g>
        </g>
    </g>
</svg>